<?xml version="1.0" encoding="utf-8"?>
<!-- Generator: Adobe Illustrator 16.2.1, SVG Export Plug-In . SVG Version: 6.00 Build 0)  -->
<!DOCTYPE svg PUBLIC "-//W3C//DTD SVG 1.1//EN" "http://www.w3.org/Graphics/SVG/1.1/DTD/svg11.dtd">
<svg version="1.1" id="Layer_1" xmlns="http://www.w3.org/2000/svg" xmlns:xlink="http://www.w3.org/1999/xlink" x="0px" y="0px"
	 width="18px" height="18px" viewBox="0 0 18 18" enable-background="new 0 0 18 18" xml:space="preserve">
<path fill="#F0DECA" d="M18,3.417c-0.662,0.293-1.374,0.492-2.12,0.582c0.762-0.458,1.347-1.181,1.623-2.043
	c-0.714,0.423-1.504,0.73-2.346,0.896c-0.674-0.718-1.633-1.166-2.696-1.166c-2.038,0-3.691,1.653-3.691,3.692
	c0,0.29,0.031,0.571,0.096,0.842c-3.07-0.154-5.79-1.624-7.613-3.858c-0.316,0.545-0.499,1.18-0.499,1.856
	c0,1.281,0.653,2.412,1.644,3.074c-0.605-0.02-1.175-0.186-1.673-0.463C0.722,6.846,0.722,6.861,0.722,6.877
	c0,1.789,1.274,3.281,2.962,3.62c-0.308,0.085-0.634,0.13-0.971,0.13c-0.238,0-0.469-0.022-0.694-0.065
	c0.469,1.466,1.833,2.533,3.448,2.564c-1.263,0.99-2.857,1.58-4.586,1.58c-0.298,0-0.592-0.017-0.881-0.051
	c1.636,1.046,3.574,1.659,5.661,1.659c6.792,0,10.507-5.628,10.507-10.508c0-0.16-0.003-0.319-0.011-0.478
	C16.88,4.808,17.506,4.158,18,3.417z"/>
</svg>
