<svg xmlns="http://www.w3.org/2000/svg" width="18" height="18"><path fill="#F0DECA" d="M18 3.417c-.662.293-1.374.492-2.12.582.762-.458 1.347-1.181 1.623-2.043-.714.423-1.504.73-2.346.896-.674-.718-1.633-1.166-2.696-1.166-2.038 0-3.691 1.653-3.691 3.692 0 .29.031.571.096.842-3.07-.154-5.79-1.624-7.613-3.858-.316.545-.499 1.18-.499 1.856 0 1.281.653 2.412 1.644 3.074-.605-.02-1.175-.186-1.673-.463l-.003.048c0 1.789 1.274 3.281 2.962 3.62-.308.085-.634.13-.971.13-.238 0-.469-.022-.694-.065.469 1.466 1.833 2.533 3.448 2.564-1.263.99-2.857 1.58-4.586 1.58-.298 0-.592-.017-.881-.051 1.636 1.046 3.574 1.659 5.661 1.659 6.792 0 10.507-5.628 10.507-10.508l-.011-.478c.723-.52 1.349-1.17 1.843-1.911z"/></svg>