<svg xmlns="http://www.w3.org/2000/svg" width="18" height="18"><path fill="#F0DECA" d="M.021 13.486l.021-8.844-.042-.237c0-.101.029-.162.086-.184.086-.049.194-.024.324.077.015 0 .194.14.54.42l3.71 3.042c.352.223.528.453.528.69 0 .114-.036.201-.108.259l-3.624 4.022c-.546.791-.938 1.19-1.176 1.197l-.086-.021c-.115-.043-.173-.183-.173-.421zm.507-10.45c0-.252.288-.378.863-.378h15.196c.115 0 .32.036.615.107.194.065.291.151.291.26 0 .093-.076.201-.227.323l-7.926 6.471c-.044.058-.111.116-.205.173-.194.058-.349 0-.464-.173l-7.948-6.449c-.13-.137-.195-.248-.195-.334zm.421 12.122c-.072-.072-.108-.154-.108-.248 0-.244.205-.586.615-1.024l4.303-4.757c.115-.115.227-.172.334-.172.295 0 .669.302 1.122.905l1.434 1.435c.072.072.147.115.227.13.18.058.341.015.485-.13l1.456-1.435c.194-.251.392-.449.593-.593.237-.173.431-.263.582-.27.115 0 .202.05.259.15l4.314 4.757c.266.309.45.55.55.723.064.137.097.252.097.345 0 .237-.208.359-.625.367h-15.109c-.238-.007-.414-.068-.529-.183zm11.874-6.708c0-.237.172-.468.518-.69l3.731-3.042c.338-.28.514-.42.529-.42.093-.072.172-.108.237-.108l.086.021c.051.029.076.098.076.205l-.021.227.021 8.843c0 .237-.061.378-.183.421l-.086.021c-.237 0-.625-.399-1.165-1.197l-3.646-4.022c-.065-.058-.097-.145-.097-.259z"/></svg>